<mxfile host="app.diagrams.net" modified="2024-05-07T12:49:53.974Z" agent="Mozilla/5.0 (X11; Linux x86_64; rv:125.0) Gecko/20100101 Firefox/125.0" etag="fbH4rwVWcRTDolqy8VPY" version="24.3.1" type="device">
  <diagram name="Страница — 1" id="pRm46EUK3Damx6KgUt9j">
    <mxGraphModel dx="3044" dy="2465" grid="1" gridSize="10" guides="1" tooltips="1" connect="1" arrows="1" fold="1" page="1" pageScale="1" pageWidth="827" pageHeight="1169" math="0" shadow="0">
      <root>
        <mxCell id="0" />
        <mxCell id="1" parent="0" />
        <mxCell id="1yn_UN11eEM6by03uNGn-5" value="SolvingResult" style="swimlane;fontStyle=1;align=center;verticalAlign=top;childLayout=stackLayout;horizontal=1;startSize=26;horizontalStack=0;resizeParent=1;resizeParentMax=0;resizeLast=0;collapsible=1;marginBottom=0;whiteSpace=wrap;html=1;" parent="1" vertex="1">
          <mxGeometry x="268" y="290" width="290" height="110" as="geometry" />
        </mxCell>
        <mxCell id="1yn_UN11eEM6by03uNGn-6" value="&lt;div&gt;+ IsSuccessful: bool&lt;/div&gt;&lt;div&gt;+ VarsValues: Vector&lt;br&gt;&lt;/div&gt;" style="text;strokeColor=none;fillColor=none;align=left;verticalAlign=top;spacingLeft=4;spacingRight=4;overflow=hidden;rotatable=0;points=[[0,0.5],[1,0.5]];portConstraint=eastwest;whiteSpace=wrap;html=1;" parent="1yn_UN11eEM6by03uNGn-5" vertex="1">
          <mxGeometry y="26" width="290" height="34" as="geometry" />
        </mxCell>
        <mxCell id="1yn_UN11eEM6by03uNGn-7" value="" style="line;strokeWidth=1;fillColor=none;align=left;verticalAlign=middle;spacingTop=-1;spacingLeft=3;spacingRight=3;rotatable=0;labelPosition=right;points=[];portConstraint=eastwest;strokeColor=inherit;" parent="1yn_UN11eEM6by03uNGn-5" vertex="1">
          <mxGeometry y="60" width="290" height="8" as="geometry" />
        </mxCell>
        <mxCell id="1yn_UN11eEM6by03uNGn-8" value="&lt;div&gt;+ Successful(vars: Vector):&amp;nbsp;SolvingResult &amp;lt;&amp;lt;static&amp;gt;&amp;gt;&lt;br&gt;&lt;/div&gt;&lt;div&gt;+ Error(): SolvingResult &amp;lt;&amp;lt;static&amp;gt;&amp;gt;&lt;/div&gt;" style="text;strokeColor=none;fillColor=none;align=left;verticalAlign=top;spacingLeft=4;spacingRight=4;overflow=hidden;rotatable=0;points=[[0,0.5],[1,0.5]];portConstraint=eastwest;whiteSpace=wrap;html=1;" parent="1yn_UN11eEM6by03uNGn-5" vertex="1">
          <mxGeometry y="68" width="290" height="42" as="geometry" />
        </mxCell>
        <mxCell id="1yn_UN11eEM6by03uNGn-9" value="Vector" style="swimlane;fontStyle=1;align=center;verticalAlign=top;childLayout=stackLayout;horizontal=1;startSize=26;horizontalStack=0;resizeParent=1;resizeParentMax=0;resizeLast=0;collapsible=1;marginBottom=0;whiteSpace=wrap;html=1;" parent="1" vertex="1">
          <mxGeometry x="320" y="110" width="230" height="110" as="geometry" />
        </mxCell>
        <mxCell id="1yn_UN11eEM6by03uNGn-11" value="" style="line;strokeWidth=1;fillColor=none;align=left;verticalAlign=middle;spacingTop=-1;spacingLeft=3;spacingRight=3;rotatable=0;labelPosition=right;points=[];portConstraint=eastwest;strokeColor=inherit;" parent="1yn_UN11eEM6by03uNGn-9" vertex="1">
          <mxGeometry y="26" width="230" height="8" as="geometry" />
        </mxCell>
        <mxCell id="1yn_UN11eEM6by03uNGn-12" value="&lt;div&gt;+ Vector()&lt;/div&gt;&lt;div&gt;+ Vector(size: std::size_t)&lt;/div&gt;&lt;div&gt;+ operator [](index: std::size_t): double&amp;amp;&lt;/div&gt;&lt;div&gt;+ Size(): std::size_t&lt;br&gt;&lt;/div&gt;" style="text;strokeColor=none;fillColor=none;align=left;verticalAlign=top;spacingLeft=4;spacingRight=4;overflow=hidden;rotatable=0;points=[[0,0.5],[1,0.5]];portConstraint=eastwest;whiteSpace=wrap;html=1;" parent="1yn_UN11eEM6by03uNGn-9" vertex="1">
          <mxGeometry y="34" width="230" height="76" as="geometry" />
        </mxCell>
        <mxCell id="1yn_UN11eEM6by03uNGn-13" value="Matrix" style="swimlane;fontStyle=1;align=center;verticalAlign=top;childLayout=stackLayout;horizontal=1;startSize=26;horizontalStack=0;resizeParent=1;resizeParentMax=0;resizeLast=0;collapsible=1;marginBottom=0;whiteSpace=wrap;html=1;" parent="1" vertex="1">
          <mxGeometry x="410" y="-90" width="250" height="150" as="geometry" />
        </mxCell>
        <mxCell id="1yn_UN11eEM6by03uNGn-14" value="" style="line;strokeWidth=1;fillColor=none;align=left;verticalAlign=middle;spacingTop=-1;spacingLeft=3;spacingRight=3;rotatable=0;labelPosition=right;points=[];portConstraint=eastwest;strokeColor=inherit;" parent="1yn_UN11eEM6by03uNGn-13" vertex="1">
          <mxGeometry y="26" width="250" height="8" as="geometry" />
        </mxCell>
        <mxCell id="1yn_UN11eEM6by03uNGn-15" value="&lt;div&gt;+ Matrix()&lt;/div&gt;&lt;div&gt;+&amp;nbsp;Matrix(height: std::size_t, width: std::size_t)&lt;/div&gt;&lt;div&gt;+ At(index: std::size_t): double&amp;amp;&lt;/div&gt;&lt;div&gt;+ Width(): std::size_t&lt;/div&gt;&lt;div&gt;+ Height(): std::size_t&lt;/div&gt;&lt;div&gt;+ TryGetEdgeSize(): std::size_t&lt;/div&gt;&lt;div&gt;+ IsSquare(): bool&lt;/div&gt;" style="text;strokeColor=none;fillColor=none;align=left;verticalAlign=top;spacingLeft=4;spacingRight=4;overflow=hidden;rotatable=0;points=[[0,0.5],[1,0.5]];portConstraint=eastwest;whiteSpace=wrap;html=1;" parent="1yn_UN11eEM6by03uNGn-13" vertex="1">
          <mxGeometry y="34" width="250" height="116" as="geometry" />
        </mxCell>
        <mxCell id="6-GUUWZj6aCAD4B4Y2FK-1" value="AllocArray2D&amp;lt;T&amp;gt;" style="swimlane;fontStyle=1;align=center;verticalAlign=top;childLayout=stackLayout;horizontal=1;startSize=26;horizontalStack=0;resizeParent=1;resizeParentMax=0;resizeLast=0;collapsible=1;marginBottom=0;whiteSpace=wrap;html=1;" parent="1" vertex="1">
          <mxGeometry x="882" y="-200" width="290" height="120" as="geometry" />
        </mxCell>
        <mxCell id="6-GUUWZj6aCAD4B4Y2FK-2" value="" style="line;strokeWidth=1;fillColor=none;align=left;verticalAlign=middle;spacingTop=-1;spacingLeft=3;spacingRight=3;rotatable=0;labelPosition=right;points=[];portConstraint=eastwest;strokeColor=inherit;" parent="6-GUUWZj6aCAD4B4Y2FK-1" vertex="1">
          <mxGeometry y="26" width="290" height="8" as="geometry" />
        </mxCell>
        <mxCell id="6-GUUWZj6aCAD4B4Y2FK-3" value="&lt;div&gt;+&amp;nbsp;AllocArray2D()&lt;/div&gt;&lt;div&gt;+&amp;nbsp;AllocArray2D(height: std::size_t, width: std::size_t)&lt;/div&gt;&lt;div&gt;+ At(index: std::size_t): T&amp;amp;&lt;/div&gt;&lt;div&gt;+ Width(): std::size_t&lt;/div&gt;&lt;div&gt;+ Height(): std::size_t&lt;/div&gt;" style="text;strokeColor=none;fillColor=none;align=left;verticalAlign=top;spacingLeft=4;spacingRight=4;overflow=hidden;rotatable=0;points=[[0,0.5],[1,0.5]];portConstraint=eastwest;whiteSpace=wrap;html=1;" parent="6-GUUWZj6aCAD4B4Y2FK-1" vertex="1">
          <mxGeometry y="34" width="290" height="86" as="geometry" />
        </mxCell>
        <mxCell id="6-GUUWZj6aCAD4B4Y2FK-5" value="&lt;div&gt;&lt;i&gt;&amp;lt;&amp;lt;enumeration&amp;gt;&amp;gt;&lt;/i&gt;&lt;br&gt;&lt;/div&gt;&lt;div&gt;&lt;b&gt;SimpleOpStatus&lt;/b&gt;&lt;/div&gt;" style="swimlane;fontStyle=0;childLayout=stackLayout;horizontal=1;startSize=50;fillColor=none;horizontalStack=0;resizeParent=1;resizeParentMax=0;resizeLast=0;collapsible=1;marginBottom=0;whiteSpace=wrap;html=1;" parent="1" vertex="1">
          <mxGeometry x="590" y="-220" width="140" height="94" as="geometry">
            <mxRectangle x="400" y="40" width="130" height="50" as="alternateBounds" />
          </mxGeometry>
        </mxCell>
        <mxCell id="6-GUUWZj6aCAD4B4Y2FK-6" value="&lt;div&gt;Success&lt;/div&gt;&lt;div&gt;Error&lt;br&gt;&lt;/div&gt;" style="text;strokeColor=none;fillColor=none;align=left;verticalAlign=top;spacingLeft=4;spacingRight=4;overflow=hidden;rotatable=0;points=[[0,0.5],[1,0.5]];portConstraint=eastwest;whiteSpace=wrap;html=1;" parent="6-GUUWZj6aCAD4B4Y2FK-5" vertex="1">
          <mxGeometry y="50" width="140" height="44" as="geometry" />
        </mxCell>
        <mxCell id="6-GUUWZj6aCAD4B4Y2FK-9" value="LSESolver" style="swimlane;fontStyle=1;align=center;verticalAlign=top;childLayout=stackLayout;horizontal=1;startSize=26;horizontalStack=0;resizeParent=1;resizeParentMax=0;resizeLast=0;collapsible=1;marginBottom=0;whiteSpace=wrap;html=1;" parent="1" vertex="1">
          <mxGeometry x="680" y="140" width="470" height="150" as="geometry" />
        </mxCell>
        <mxCell id="6-GUUWZj6aCAD4B4Y2FK-11" value="" style="line;strokeWidth=1;fillColor=none;align=left;verticalAlign=middle;spacingTop=-1;spacingLeft=3;spacingRight=3;rotatable=0;labelPosition=right;points=[];portConstraint=eastwest;strokeColor=inherit;" parent="6-GUUWZj6aCAD4B4Y2FK-9" vertex="1">
          <mxGeometry y="26" width="470" height="8" as="geometry" />
        </mxCell>
        <mxCell id="6-GUUWZj6aCAD4B4Y2FK-12" value="&lt;div&gt;&lt;div&gt;- SolveLSEInternal(varsCoeffs: Matrix, freeCoeffs: Vector): SolvingResult&lt;br&gt;&lt;/div&gt;&lt;/div&gt;&lt;div&gt;+ SetEquationsCount(eqsCount: std::size_t): SimpleOpStatus&lt;/div&gt;&lt;div&gt;&lt;div&gt;+  SetVariablesCoefficients(varsCoeffs:Matrix): SimpleOpStatus&lt;/div&gt;&lt;div&gt;&lt;div&gt;+ SetFreeCoefficients(freeCoeffs: Vector): SimpleOpStatus&lt;/div&gt;&lt;div&gt;&lt;div&gt;+ SolveLSE()&lt;/div&gt;&lt;div&gt;+ IsLSESolvedSuccessfully(): Optional&amp;lt;bool&amp;gt;&lt;/div&gt;&lt;div&gt;+ Vector GetVariablesValuesUnsafely()&lt;/div&gt;&lt;/div&gt;&lt;/div&gt;&lt;/div&gt;" style="text;strokeColor=none;fillColor=none;align=left;verticalAlign=top;spacingLeft=4;spacingRight=4;overflow=hidden;rotatable=0;points=[[0,0.5],[1,0.5]];portConstraint=eastwest;whiteSpace=wrap;html=1;" parent="6-GUUWZj6aCAD4B4Y2FK-9" vertex="1">
          <mxGeometry y="34" width="470" height="116" as="geometry" />
        </mxCell>
        <mxCell id="6-GUUWZj6aCAD4B4Y2FK-13" value="LUPSolver" style="swimlane;fontStyle=1;align=center;verticalAlign=top;childLayout=stackLayout;horizontal=1;startSize=26;horizontalStack=0;resizeParent=1;resizeParentMax=0;resizeLast=0;collapsible=1;marginBottom=0;whiteSpace=wrap;html=1;" parent="1" vertex="1">
          <mxGeometry x="520" y="440" width="400" height="60" as="geometry" />
        </mxCell>
        <mxCell id="6-GUUWZj6aCAD4B4Y2FK-15" value="" style="line;strokeWidth=1;fillColor=none;align=left;verticalAlign=middle;spacingTop=-1;spacingLeft=3;spacingRight=3;rotatable=0;labelPosition=right;points=[];portConstraint=eastwest;strokeColor=inherit;" parent="6-GUUWZj6aCAD4B4Y2FK-13" vertex="1">
          <mxGeometry y="26" width="400" height="8" as="geometry" />
        </mxCell>
        <mxCell id="6-GUUWZj6aCAD4B4Y2FK-16" value="- SolveLSEInternal(varsCoeffs: Matrix, freeCoeffs: Vector): SolvingResult" style="text;strokeColor=none;fillColor=none;align=left;verticalAlign=top;spacingLeft=4;spacingRight=4;overflow=hidden;rotatable=0;points=[[0,0.5],[1,0.5]];portConstraint=eastwest;whiteSpace=wrap;html=1;" parent="6-GUUWZj6aCAD4B4Y2FK-13" vertex="1">
          <mxGeometry y="34" width="400" height="26" as="geometry" />
        </mxCell>
        <mxCell id="6-GUUWZj6aCAD4B4Y2FK-17" value="GaussHoletskiySolver" style="swimlane;fontStyle=1;align=center;verticalAlign=top;childLayout=stackLayout;horizontal=1;startSize=26;horizontalStack=0;resizeParent=1;resizeParentMax=0;resizeLast=0;collapsible=1;marginBottom=0;whiteSpace=wrap;html=1;" parent="1" vertex="1">
          <mxGeometry x="930" y="440" width="400" height="60" as="geometry" />
        </mxCell>
        <mxCell id="6-GUUWZj6aCAD4B4Y2FK-18" value="" style="line;strokeWidth=1;fillColor=none;align=left;verticalAlign=middle;spacingTop=-1;spacingLeft=3;spacingRight=3;rotatable=0;labelPosition=right;points=[];portConstraint=eastwest;strokeColor=inherit;" parent="6-GUUWZj6aCAD4B4Y2FK-17" vertex="1">
          <mxGeometry y="26" width="400" height="8" as="geometry" />
        </mxCell>
        <mxCell id="6-GUUWZj6aCAD4B4Y2FK-19" value="- SolveLSEInternal(varsCoeffs: Matrix, freeCoeffs: Vector): SolvingResult" style="text;strokeColor=none;fillColor=none;align=left;verticalAlign=top;spacingLeft=4;spacingRight=4;overflow=hidden;rotatable=0;points=[[0,0.5],[1,0.5]];portConstraint=eastwest;whiteSpace=wrap;html=1;" parent="6-GUUWZj6aCAD4B4Y2FK-17" vertex="1">
          <mxGeometry y="34" width="400" height="26" as="geometry" />
        </mxCell>
        <mxCell id="6-GUUWZj6aCAD4B4Y2FK-20" value="RotationSolver" style="swimlane;fontStyle=1;align=center;verticalAlign=top;childLayout=stackLayout;horizontal=1;startSize=26;horizontalStack=0;resizeParent=1;resizeParentMax=0;resizeLast=0;collapsible=1;marginBottom=0;whiteSpace=wrap;html=1;" parent="1" vertex="1">
          <mxGeometry x="827" width="400" height="60" as="geometry" />
        </mxCell>
        <mxCell id="6-GUUWZj6aCAD4B4Y2FK-21" value="" style="line;strokeWidth=1;fillColor=none;align=left;verticalAlign=middle;spacingTop=-1;spacingLeft=3;spacingRight=3;rotatable=0;labelPosition=right;points=[];portConstraint=eastwest;strokeColor=inherit;" parent="6-GUUWZj6aCAD4B4Y2FK-20" vertex="1">
          <mxGeometry y="26" width="400" height="8" as="geometry" />
        </mxCell>
        <mxCell id="6-GUUWZj6aCAD4B4Y2FK-22" value="- SolveLSEInternal(varsCoeffs: Matrix, freeCoeffs: Vector): SolvingResult" style="text;strokeColor=none;fillColor=none;align=left;verticalAlign=top;spacingLeft=4;spacingRight=4;overflow=hidden;rotatable=0;points=[[0,0.5],[1,0.5]];portConstraint=eastwest;whiteSpace=wrap;html=1;" parent="6-GUUWZj6aCAD4B4Y2FK-20" vertex="1">
          <mxGeometry y="34" width="400" height="26" as="geometry" />
        </mxCell>
        <mxCell id="6-GUUWZj6aCAD4B4Y2FK-26" value="LUPDecResult" style="swimlane;fontStyle=1;align=center;verticalAlign=top;childLayout=stackLayout;horizontal=1;startSize=26;horizontalStack=0;resizeParent=1;resizeParentMax=0;resizeLast=0;collapsible=1;marginBottom=0;whiteSpace=wrap;html=1;" parent="1" vertex="1">
          <mxGeometry x="640" y="570" width="160" height="88" as="geometry" />
        </mxCell>
        <mxCell id="6-GUUWZj6aCAD4B4Y2FK-27" value="&lt;div&gt;+ L: Matrix&lt;/div&gt;&lt;div&gt;+ U: Matrix&lt;/div&gt;&lt;div&gt;+ P: std::size_t[]&lt;br&gt;&lt;/div&gt;" style="text;strokeColor=none;fillColor=none;align=left;verticalAlign=top;spacingLeft=4;spacingRight=4;overflow=hidden;rotatable=0;points=[[0,0.5],[1,0.5]];portConstraint=eastwest;whiteSpace=wrap;html=1;" parent="6-GUUWZj6aCAD4B4Y2FK-26" vertex="1">
          <mxGeometry y="26" width="160" height="54" as="geometry" />
        </mxCell>
        <mxCell id="6-GUUWZj6aCAD4B4Y2FK-28" value="" style="line;strokeWidth=1;fillColor=none;align=left;verticalAlign=middle;spacingTop=-1;spacingLeft=3;spacingRight=3;rotatable=0;labelPosition=right;points=[];portConstraint=eastwest;strokeColor=inherit;" parent="6-GUUWZj6aCAD4B4Y2FK-26" vertex="1">
          <mxGeometry y="80" width="160" height="8" as="geometry" />
        </mxCell>
        <mxCell id="6-GUUWZj6aCAD4B4Y2FK-30" value="LDLDecResult" style="swimlane;fontStyle=1;align=center;verticalAlign=top;childLayout=stackLayout;horizontal=1;startSize=26;horizontalStack=0;resizeParent=1;resizeParentMax=0;resizeLast=0;collapsible=1;marginBottom=0;whiteSpace=wrap;html=1;" parent="1" vertex="1">
          <mxGeometry x="1050" y="570" width="160" height="78" as="geometry" />
        </mxCell>
        <mxCell id="6-GUUWZj6aCAD4B4Y2FK-31" value="&lt;div&gt;+ L: Matrix&lt;/div&gt;&lt;div&gt;+ D: Matrix&lt;br&gt;&lt;/div&gt;" style="text;strokeColor=none;fillColor=none;align=left;verticalAlign=top;spacingLeft=4;spacingRight=4;overflow=hidden;rotatable=0;points=[[0,0.5],[1,0.5]];portConstraint=eastwest;whiteSpace=wrap;html=1;" parent="6-GUUWZj6aCAD4B4Y2FK-30" vertex="1">
          <mxGeometry y="26" width="160" height="44" as="geometry" />
        </mxCell>
        <mxCell id="6-GUUWZj6aCAD4B4Y2FK-32" value="" style="line;strokeWidth=1;fillColor=none;align=left;verticalAlign=middle;spacingTop=-1;spacingLeft=3;spacingRight=3;rotatable=0;labelPosition=right;points=[];portConstraint=eastwest;strokeColor=inherit;" parent="6-GUUWZj6aCAD4B4Y2FK-30" vertex="1">
          <mxGeometry y="70" width="160" height="8" as="geometry" />
        </mxCell>
        <mxCell id="6-GUUWZj6aCAD4B4Y2FK-35" value="" style="endArrow=block;endSize=16;endFill=0;html=1;rounded=0;" parent="1" source="6-GUUWZj6aCAD4B4Y2FK-13" target="6-GUUWZj6aCAD4B4Y2FK-12" edge="1">
          <mxGeometry width="160" relative="1" as="geometry">
            <mxPoint x="759.9953164556962" y="360" as="sourcePoint" />
            <mxPoint x="846.3877215189873" y="290" as="targetPoint" />
          </mxGeometry>
        </mxCell>
        <mxCell id="6-GUUWZj6aCAD4B4Y2FK-36" value="" style="endArrow=block;endSize=16;endFill=0;html=1;rounded=0;" parent="1" source="6-GUUWZj6aCAD4B4Y2FK-17" target="6-GUUWZj6aCAD4B4Y2FK-12" edge="1">
          <mxGeometry width="160" relative="1" as="geometry">
            <mxPoint x="767" y="370" as="sourcePoint" />
            <mxPoint x="853" y="300" as="targetPoint" />
          </mxGeometry>
        </mxCell>
        <mxCell id="6-GUUWZj6aCAD4B4Y2FK-37" value="" style="endArrow=block;endSize=16;endFill=0;html=1;rounded=0;" parent="1" source="6-GUUWZj6aCAD4B4Y2FK-20" target="6-GUUWZj6aCAD4B4Y2FK-9" edge="1">
          <mxGeometry width="160" relative="1" as="geometry">
            <mxPoint x="767" y="370" as="sourcePoint" />
            <mxPoint x="853" y="300" as="targetPoint" />
          </mxGeometry>
        </mxCell>
        <mxCell id="6-GUUWZj6aCAD4B4Y2FK-39" value="" style="endArrow=open;endFill=1;endSize=12;html=1;rounded=0;" parent="1" source="6-GUUWZj6aCAD4B4Y2FK-20" target="6-GUUWZj6aCAD4B4Y2FK-3" edge="1">
          <mxGeometry width="160" relative="1" as="geometry">
            <mxPoint x="730" y="110" as="sourcePoint" />
            <mxPoint x="890" y="110" as="targetPoint" />
          </mxGeometry>
        </mxCell>
        <mxCell id="6-GUUWZj6aCAD4B4Y2FK-40" value="" style="endArrow=open;endFill=1;endSize=12;html=1;rounded=0;" parent="1" source="6-GUUWZj6aCAD4B4Y2FK-16" target="6-GUUWZj6aCAD4B4Y2FK-26" edge="1">
          <mxGeometry width="160" relative="1" as="geometry">
            <mxPoint x="810" y="560" as="sourcePoint" />
            <mxPoint x="970" y="560" as="targetPoint" />
          </mxGeometry>
        </mxCell>
        <mxCell id="6-GUUWZj6aCAD4B4Y2FK-41" value="" style="endArrow=open;endFill=1;endSize=12;html=1;rounded=0;" parent="1" source="6-GUUWZj6aCAD4B4Y2FK-17" target="6-GUUWZj6aCAD4B4Y2FK-30" edge="1">
          <mxGeometry width="160" relative="1" as="geometry">
            <mxPoint x="810" y="560" as="sourcePoint" />
            <mxPoint x="970" y="560" as="targetPoint" />
          </mxGeometry>
        </mxCell>
        <mxCell id="6-GUUWZj6aCAD4B4Y2FK-42" value="" style="endArrow=open;endFill=1;endSize=12;html=1;rounded=0;" parent="1" source="6-GUUWZj6aCAD4B4Y2FK-12" target="1yn_UN11eEM6by03uNGn-5" edge="1">
          <mxGeometry width="160" relative="1" as="geometry">
            <mxPoint x="560" y="220" as="sourcePoint" />
            <mxPoint x="720" y="220" as="targetPoint" />
          </mxGeometry>
        </mxCell>
        <mxCell id="6-GUUWZj6aCAD4B4Y2FK-43" value="" style="endArrow=open;endFill=1;endSize=12;html=1;rounded=0;" parent="1" source="6-GUUWZj6aCAD4B4Y2FK-12" target="1yn_UN11eEM6by03uNGn-9" edge="1">
          <mxGeometry width="160" relative="1" as="geometry">
            <mxPoint x="500" y="310" as="sourcePoint" />
            <mxPoint x="660" y="310" as="targetPoint" />
          </mxGeometry>
        </mxCell>
        <mxCell id="6-GUUWZj6aCAD4B4Y2FK-44" value="" style="endArrow=open;endFill=1;endSize=12;html=1;rounded=0;" parent="1" source="6-GUUWZj6aCAD4B4Y2FK-9" target="1yn_UN11eEM6by03uNGn-13" edge="1">
          <mxGeometry width="160" relative="1" as="geometry">
            <mxPoint x="530" y="120" as="sourcePoint" />
            <mxPoint x="690" y="120" as="targetPoint" />
          </mxGeometry>
        </mxCell>
        <mxCell id="6-GUUWZj6aCAD4B4Y2FK-45" value="" style="endArrow=open;endFill=1;endSize=12;html=1;rounded=0;" parent="1" source="6-GUUWZj6aCAD4B4Y2FK-9" target="6-GUUWZj6aCAD4B4Y2FK-5" edge="1">
          <mxGeometry width="160" relative="1" as="geometry">
            <mxPoint x="510" y="120" as="sourcePoint" />
            <mxPoint x="670" y="120" as="targetPoint" />
          </mxGeometry>
        </mxCell>
        <mxCell id="6-GUUWZj6aCAD4B4Y2FK-46" value="" style="endArrow=open;endFill=1;endSize=12;html=1;rounded=0;" parent="1" source="1yn_UN11eEM6by03uNGn-5" target="1yn_UN11eEM6by03uNGn-9" edge="1">
          <mxGeometry width="160" relative="1" as="geometry">
            <mxPoint x="220" y="350" as="sourcePoint" />
            <mxPoint x="310" y="250" as="targetPoint" />
          </mxGeometry>
        </mxCell>
      </root>
    </mxGraphModel>
  </diagram>
</mxfile>
